<svg id="Layer_1" data-name="Layer 1" xmlns="http://www.w3.org/2000/svg" viewBox="0 0 663.79 333.96"><path d="M136.29,229.47c0,18.94-11.15,37.89-33.44,46.24,5,9.62,17.56,19.23,30.51,19.23a24.72,24.72,0,0,0,14.35-4.6c2.37,9.75-7.66,12.26-12.68,12.26-15,0-29.25-14.63-35.1-25.77a78.18,78.18,0,0,1-24,3.48c-40.12,0-60.18-25.49-60.18-50.84,0-25.5,20.06-50.85,60.18-50.85S136.29,204,136.29,229.47ZM122.64,238c0-26.32-19.79-56.13-54-56.13-26.89,0-39.15,18.38-39.15,39,0,26.33,19.79,56.28,54.05,56.28C110.38,277.11,122.64,258.58,122.64,238Z"/><path d="M203,212.33a20.63,20.63,0,0,0-4.74.84c-.56-.14-.56-1.12-.56-1.12l24.52-7.1v57c0,9.89,1.81,13.93,4.74,13.93,2.09,0,4.73-2.23,7.8-6a.54.54,0,0,1,1,0l.28,1c-4,5.71-9.33,8.22-13.93,8.22-5.85,0-11-4-12.12-10.73a27.43,27.43,0,0,1-21.59,11.28c-31.9,0-33-22.42-33-41.65V223.89c0-9.61-3.35-11.56-6.69-11.56a20.73,20.73,0,0,0-4.74.84c-.55-.14-.55-1.12-.55-1.12L167.9,205v30c.28,14.49-1.53,41.09,21.87,41.09,10.73,0,16.72-6,19.92-10.45V223.89C209.69,214.28,206.35,212.33,203,212.33Z"/><path d="M310.26,261.92c0,9.89,1.81,13.93,4.6,13.93,2.09,0,4.73-2.23,7.8-6,.7-.69,1,0,1,0l.42,1c-4,5.71-9.19,8.22-13.79,8.22A12.35,12.35,0,0,1,298,268.61c-9.33,5-24.51,11.56-35.94,11.56-9.19,0-20.2-3.06-20.2-15.88,0-22,50.71-20.48,54.75-35-1.81-11.15-6.69-20.34-19.5-20.06-13.93.42-11.15,11.14-18.95,19.08a7.85,7.85,0,0,1-5.71,2.51A7.22,7.22,0,0,1,246.74,219c6.55-8.5,20.48-12,30.92-12,28.14,0,32.6,17.13,32.6,36.77Zm-13.09-28.14c-8.5,11.57-41.79,9.89-41.79,30.65,0,7.38,5.43,11.14,13.93,11.14,7.66,0,17.83-3.06,28.41-9.19V250.64C297.72,245.35,297.72,239.5,297.17,233.78Z"/><path d="M340.21,192.69c0-9.61-3.35-11.56-6.69-11.56a20.73,20.73,0,0,0-4.74.84c-.55-.14-.55-1.12-.55-1.12l24.51-7.1v85.53c0,17.83,8.92,17,11.56,17.83.56.14.56,1.11.56,1.11H328.23s0-1,.55-1.11c2.65-.84,11.43,0,11.43-17.83Z"/><path d="M382.27,223.89c0-9.61-3.34-11.56-6.83-11.56a22,22,0,0,0-4.73.84c-.42-.14-.42-1.12-.42-1.12l24.52-7.1v54.33c0,17.83,8.91,17,11.56,17.83.56.14.56,1.11.56,1.11H370.29s0-1,.56-1.11c2.65-.84,11.42,0,11.42-17.83Z"/><path d="M479.91,223.89c0-9.61-3.34-11.56-6.82-11.56a22.24,22.24,0,0,0-4.74.84c-.42-.14-.42-1.12-.42-1.12l24.52-7.1v54.33c0,17.83,8.92,17,11.56,17.83.56.14.56,1.11.56,1.11H467.93s0-1,.56-1.11c2.65-.84,11.42,0,11.42-17.83Zm5.85-44.29c4.74,0,9.48,2.92,9.48,8.77s-4.74,8.92-9.48,8.92-9.47-3.07-9.47-8.92S481,179.6,485.76,179.6Z"/><path d="M547.19,207.46c14.91,0,29.25,11.42,31.48,26.74H524.49c0,19.36,12.53,43.05,32.59,43.05,15,0,21.45-13.38,22.29-18.67l2,1c-3.48,12.4-12,20.76-30.79,20.76-26,0-38.58-17.83-38.58-36.64C512,218.88,529.92,207.46,547.19,207.46Zm-22.56,24.65h40.81c-1.81-6.68-8.92-22.15-21.31-22.15C531.31,210,525.32,220,524.63,232.11Z"/><path d="M597.61,223.89c0-9.61-3.34-11.42-6.68-11.42a34.77,34.77,0,0,0-4.74.7c-.56-.14-.56-1.12-.56-1.12l24.52-7V221c7.66-8.5,17-15.74,26.05-15.74,4.32,0,9.33,1.53,9.33,6.68,0,3.9-3.2,7.94-8.63,6.55-4.6-1.11-7.66-3.34-11.57-3.34-3.62,0-7.94,1.95-15.18,8.08v37.47c.42,16.44,8.92,15.6,11.56,16.44.56.14.56,1.11.56,1.11H585.63s0-1,.56-1.11c2.65-.84,11.42,0,11.42-17.83Z"/><path d="M462.09,260.25c-4.46,9.75-11.7,14.91-17.69,14.91-5.3,0-9.48-4.18-9.48-13.24V210.8h24.8v-2.23h-24.8V187.84a24,24,0,0,0-7.27-16.51,28.76,28.76,0,0,0-12.39-7,31.59,31.59,0,0,0-18.71.43,21.07,21.07,0,0,0-7.14,3.89c-11.47,8.62-10.6,18.87-10.6,18.87h0a8.8,8.8,0,1,0,13.06-8h0a8.52,8.52,0,0,0-1.23-.55l-.07,0a4.9,4.9,0,0,1-.95-7.6,18.33,18.33,0,0,1,7.59-4.56,29.6,29.6,0,0,1,17.48-.4,26.69,26.69,0,0,1,11.49,6.44A21.63,21.63,0,0,1,432.65,191c-.41,9.47-3.3,17.59-16.67,17.59h-5v2.23h11.43v51.54c0,10.45,7.24,17,16.43,17,8.08,0,17.42-5,24.8-17.14C463.9,261.23,462.78,258.72,462.09,260.25Z"/><path d="M330.62,100l-36-36c-11.43-11.44-16.53-29.51-4.13-41.91,11.77-11.77,28.67-7.77,40.14,2.47,15.41-14.07,31.56-11.4,40.32-2.64C380,31,382.56,48,366.63,64ZM308.16,19.81A19.92,19.92,0,0,0,294,25.57c-7.4,7.4-9.26,21.47,4.14,34.87l32.5,32.5,32.5-32.5c13.51-13.51,11.7-27.64,4.3-35s-21.52-9.22-35.05,4.3l-1.75,1.76-1.76-1.76C321.79,22.63,314.53,19.81,308.16,19.81Z"/><path d="M353.31,144.19c-7.71,0-15.66-3.4-22.73-9.82-9,8.18-19.54,11.39-29.13,8.82a24.63,24.63,0,0,1-17.37-17.38c-2.74-10.22,1.09-21.47,10.49-30.88l36-36,36,36c9.5,9.5,13.37,20.84,10.62,31.11a24.2,24.2,0,0,1-17.28,17.28A25.55,25.55,0,0,1,353.31,144.19Zm-22.73-16.76,1.76,1.76c8.21,8.21,17.8,11.6,26.3,9.33a19.27,19.27,0,0,0,13.77-13.77c2.28-8.5-1.12-18.09-9.33-26.3L330.58,66l-32.5,32.5c-8.11,8.11-11.47,17.62-9.2,26.08a19.42,19.42,0,0,0,13.86,13.86c8.45,2.26,18-1.09,26.08-9.2Z"/><path d="M290.79,127a25,25,0,0,1-17.69-7.24c-8.76-8.77-11.43-24.91,2.63-40.33-6-6.56-9.28-13.84-9.64-21.17a24.73,24.73,0,0,1,7.18-19c12.4-12.39,30.47-7.3,41.91,4.14l36,36-36,36C306.93,123.66,298.38,127,290.79,127Zm.13-90a19.75,19.75,0,0,0-14.13,5.76c-7.41,7.41-9.27,21.48,4.13,34.88l1.76,1.76-1.76,1.75c-13.52,13.52-11.71,27.65-4.3,35.05s21.53,9.21,35-4.3l32.5-32.5-32.5-32.5C305.54,40.78,298.74,37.36,292,37Q291.46,37,290.92,37Z"/><path d="M370.54,126.92c-7.59,0-16.14-3.3-24.39-11.55l-36-36,36-36c11.44-11.44,29.51-16.53,41.91-4.14,11.77,11.78,7.76,28.67-2.47,40.14,14.07,15.42,11.4,31.56,2.63,40.33A24.91,24.91,0,0,1,370.54,126.92ZM317.17,79.36l32.49,32.5c13.52,13.52,27.65,11.7,35,4.3s9.21-21.52-4.3-35l-1.76-1.76,1.76-1.76c13.4-13.4,11.53-27.47,4.13-34.87s-21.47-9.27-34.88,4.13Z"/><path d="M215.58,316.85a10.06,10.06,0,0,1,.22-2.13,8.43,8.43,0,0,1,.65-2,7.51,7.51,0,0,1,1.09-1.69,6.41,6.41,0,0,1,1.51-1.33,7,7,0,0,1,1.95-.86,8.53,8.53,0,0,1,2.39-.32,8.68,8.68,0,0,1,2.41.32,7.11,7.11,0,0,1,2,.86,6.46,6.46,0,0,1,1.52,1.33,7.84,7.84,0,0,1,1.08,1.69,8.41,8.41,0,0,1,.64,2,10.76,10.76,0,0,1,.21,2.13,10.14,10.14,0,0,1-.13,1.66,9,9,0,0,1-.38,1.57,8.34,8.34,0,0,1-.65,1.42,7.6,7.6,0,0,1-.92,1.25l2.15,1.72-1.49,1.85-2.62-2.12a6.93,6.93,0,0,1-1.74.64,9.4,9.4,0,0,1-2,.21,8.94,8.94,0,0,1-2.39-.3,7.21,7.21,0,0,1-1.95-.86,6.62,6.62,0,0,1-1.52-1.31,7.77,7.77,0,0,1-1.08-1.68,8.35,8.35,0,0,1-.65-1.94A9.81,9.81,0,0,1,215.58,316.85Zm2.79,0a8.66,8.66,0,0,0,.12,1.44,6.18,6.18,0,0,0,.39,1.37,5.24,5.24,0,0,0,.66,1.21,4.21,4.21,0,0,0,1,1,4.33,4.33,0,0,0,1.27.64,5.09,5.09,0,0,0,1.61.24,5.94,5.94,0,0,0,.87-.06,3.52,3.52,0,0,0,.76-.17l-1.45-1.2,1.53-1.82,2,1.62a4.74,4.74,0,0,0,.59-.91,6.25,6.25,0,0,0,.41-1,8.38,8.38,0,0,0,.23-1.13,8.92,8.92,0,0,0,.08-1.16,8,8,0,0,0-.13-1.46,6.16,6.16,0,0,0-.38-1.37,5.53,5.53,0,0,0-.66-1.22,4.69,4.69,0,0,0-1-1,4.59,4.59,0,0,0-1.29-.65,5.48,5.48,0,0,0-1.63-.23,5.4,5.4,0,0,0-1.61.23,4.61,4.61,0,0,0-1.27.65,4.25,4.25,0,0,0-1,1,5.53,5.53,0,0,0-.66,1.22,6.18,6.18,0,0,0-.39,1.37A9,9,0,0,0,218.37,316.85Z"/><path d="M249.89,319a7.59,7.59,0,0,1-.43,2.69,5,5,0,0,1-1.27,1.91,5.47,5.47,0,0,1-2.05,1.15,9.37,9.37,0,0,1-2.77.38,10.28,10.28,0,0,1-2.85-.36,5.53,5.53,0,0,1-2.11-1.11,4.71,4.71,0,0,1-1.3-1.91,7.58,7.58,0,0,1-.45-2.75l0-10h2.8l0,10a3.66,3.66,0,0,0,1,2.83,4.2,4.2,0,0,0,3,.94,3.76,3.76,0,0,0,2.77-.94,3.93,3.93,0,0,0,.93-2.83l0-10h2.8Z"/><path d="M263.75,308.93l6.19,15.83H266.8l-1.6-4.44h-6c-.15.38-.29.75-.42,1.12l-.39,1.09c-.12.37-.25.73-.38,1.1s-.25.75-.38,1.13h-2.93l6-15.83Zm.51,8.95-2.08-5.81-2,5.81Z"/><path d="M277.48,308.93v13.46h7.88l0,2.37H274.71l0-15.83Z"/><path d="M293.23,308.93l0,15.83h-2.78l0-15.83Z"/><path d="M298.41,311.33v-2.4h12.49v2.4H306l0,13.43h-2.79l0-13.43Z"/><path d="M323.29,324.76h-2.82l0-6.36-6.09-9.47h3.37l4.22,6.81,4.15-6.81h3.27l-6.11,9.44Z"/><path d="M362.9,308.94V322.4h7.89l0,2.37H360.14l0-15.83Z"/><path d="M378.66,308.94l0,15.83H375.9l0-15.83Z"/><path d="M389.17,324.77l-5.5-15.83h3l4.05,12.39,4.09-12.39h3l-5.56,15.83Z"/><path d="M405.59,308.94l0,15.83h-2.79l0-15.83Z"/><path d="M422,324.77l-7.13-11.71,0,11.71h-2.79l0-15.83h3.18l7.15,11.81V308.94h2.78l0,15.83Z"/><path d="M443.28,323.31a5.79,5.79,0,0,1-1.06.78,7.44,7.44,0,0,1-1.18.55,9.17,9.17,0,0,1-1.25.32,7.82,7.82,0,0,1-1.26.1,8.66,8.66,0,0,1-2.27-.29,7.88,7.88,0,0,1-1.92-.82,7.29,7.29,0,0,1-1.54-1.27,7.19,7.19,0,0,1-1.13-1.61,8.3,8.3,0,0,1-.71-1.88,8.65,8.65,0,0,1-.24-2.05,11.61,11.61,0,0,1,.22-2.22,9.45,9.45,0,0,1,.65-2,8.21,8.21,0,0,1,1.09-1.74,7,7,0,0,1,1.52-1.36,7.23,7.23,0,0,1,1.95-.89,8.51,8.51,0,0,1,2.38-.32,10.11,10.11,0,0,1,2.49.3,6.34,6.34,0,0,1,2.11,1,5.39,5.39,0,0,1,1.55,1.73,6.57,6.57,0,0,1,.78,2.6h-2.75a4.5,4.5,0,0,0-.55-1.49,3.58,3.58,0,0,0-.93-1,4,4,0,0,0-1.24-.56,6.3,6.3,0,0,0-1.47-.17,5,5,0,0,0-1.6.24,4.64,4.64,0,0,0-1.27.66,4.51,4.51,0,0,0-1,1,5.52,5.52,0,0,0-.66,1.25,6.61,6.61,0,0,0-.39,1.42,8.47,8.47,0,0,0-.13,1.51,7.76,7.76,0,0,0,.16,1.45,5.92,5.92,0,0,0,.43,1.35,5.29,5.29,0,0,0,.71,1.17,4.74,4.74,0,0,0,1,.92,4.32,4.32,0,0,0,1.24.6,5.11,5.11,0,0,0,1.49.22,4.92,4.92,0,0,0,1.88-.34,4.46,4.46,0,0,0,1.43-.9,4.35,4.35,0,0,0,.93-1.34,4.74,4.74,0,0,0,.38-1.64h-5l0-2.4h7.55l0,8.66h-2Z"/></svg>