<svg id="Layer_1" data-name="Layer 1" xmlns="http://www.w3.org/2000/svg" viewBox="0 0 594.38 585.19"><path d="M299,380.69,154.49,236.15C108.58,190.23,88.13,117.71,137.9,68,185.15,20.69,253,36.76,299,77.85,360.88,21.37,425.71,32.1,460.87,67.27c36.5,36.51,46.67,104.92-17.28,168.88ZM208.92,58.94A80,80,0,0,0,152,82.05c-29.72,29.72-37.2,86.2,16.59,140L299,352.49,429.48,222c54.26-54.26,47-110.95,17.28-140.66s-86.39-37-140.67,17.27l-7,7-7.05-7C263.61,70.27,234.46,58.94,208.92,58.94Z"/><path d="M390.14,558.18c-30.95,0-62.86-13.64-91.25-39.39-36.25,32.82-78.41,45.71-116.9,35.38a98.88,98.88,0,0,1-69.74-69.75c-11-41,4.35-86.19,42.1-123.94L298.89,215.94,443.43,360.48c38.13,38.13,53.68,83.64,42.63,124.86A97.07,97.07,0,0,1,416.7,554.7,102.42,102.42,0,0,1,390.14,558.18Zm-91.25-67.26L306,498c32.95,33,71.46,46.59,105.58,37.47a77.39,77.39,0,0,0,55.27-55.26c9.14-34.15-4.51-72.63-37.47-105.59L298.89,244.14,168.45,374.59c-32.57,32.57-46,70.72-36.93,104.67a77.85,77.85,0,0,0,55.64,55.64c33.92,9.08,72.1-4.36,104.68-36.93Z"/><path d="M139.17,489a100,100,0,0,1-71-29.07C33,424.79,22.29,360,78.74,298.11c-23.92-26.36-37.26-55.57-38.71-85C38.6,184.05,48.84,157,68.87,137c49.75-49.75,122.28-29.32,168.2,16.6L381.61,298.12,237.07,442.67C204,475.78,169.63,489,139.17,489ZM139.7,128C118,128,98,136.08,83,151.08c-29.71,29.71-37.19,86.2,16.6,140l7.05,7.05-7.05,7.05c-54.26,54.26-47,111-17.28,140.67s86.42,37,140.67-17.28L353.41,298.12,223,167.68C198.37,143.1,171.08,129.4,144,128.06,142.58,128,141.14,128,139.7,128Z"/><path d="M459.29,488.88c-30.47,0-64.78-13.24-97.9-46.36L216.85,298,361.39,153.43c45.93-45.91,118.46-66.35,168.21-16.6,47.27,47.27,31.18,115.07-9.91,161.1,56.47,61.89,45.76,126.69,10.58,161.87A100,100,0,0,1,459.29,488.88ZM245.05,298,375.5,428.42c54.26,54.27,111,47,140.67,17.28s37-86.41-17.28-140.67L491.84,298l7.05-7.05c53.79-53.79,46.31-110.27,16.61-140s-86.18-37.19-140,16.6Z"/></svg>