<svg id="Layer_1" data-name="Layer 1" xmlns="http://www.w3.org/2000/svg" viewBox="0 0 671.36 209.86"><path d="M139.36,94.74c0,18.94-11.14,37.89-33.43,46.24,5,9.62,17.55,19.23,30.51,19.23a24.67,24.67,0,0,0,14.35-4.6c2.36,9.75-7.66,12.26-12.68,12.26-15,0-29.25-14.63-35.1-25.77a78.22,78.22,0,0,1-24,3.48c-40.12,0-60.18-25.49-60.18-50.84S38.93,43.89,79.05,43.89,139.36,69.25,139.36,94.74Zm-13.65,8.49c0-26.32-19.78-56.13-54-56.13-26.88,0-39.14,18.38-39.14,39,0,26.33,19.78,56.28,54,56.28C113.45,142.38,125.71,123.85,125.71,103.23Z"/><path d="M206.08,77.6a20.54,20.54,0,0,0-4.73.84c-.56-.14-.56-1.11-.56-1.11l24.52-7.11v57c0,9.89,1.81,13.93,4.73,13.93,2.09,0,4.74-2.22,7.8-6,.56-.69,1,0,1,0l.28,1c-4,5.71-9.34,8.22-13.93,8.22-5.85,0-11-4-12.12-10.73-4,5.71-12.12,11.29-21.59,11.29-31.9,0-33-22.43-33-41.66V89.17c0-9.62-3.34-11.57-6.68-11.57a20.63,20.63,0,0,0-4.74.84c-.56-.14-.56-1.11-.56-1.11L171,70.22v30c.28,14.49-1.53,41.09,21.87,41.09,10.73,0,16.72-6,19.92-10.44V89.17C212.77,79.55,209.43,77.6,206.08,77.6Z"/><path d="M313.34,127.19c0,9.89,1.81,13.93,4.59,13.93,2.09,0,4.74-2.22,7.81-6,.69-.69,1,0,1,0l.42,1c-4,5.71-9.2,8.22-13.79,8.22a12.34,12.34,0,0,1-12.26-10.45c-9.33,5-24.52,11.56-35.94,11.56-9.19,0-20.2-3.06-20.2-15.88,0-22,50.71-20.47,54.75-35-1.81-11.15-6.69-20.34-19.51-20.06C266.25,75,269,85.68,261.24,93.62a7.85,7.85,0,0,1-5.71,2.51,7.37,7.37,0,0,1-7.38-7.1,7.26,7.26,0,0,1,1.67-4.74c6.54-8.5,20.47-12,30.92-12,28.14,0,32.6,17.13,32.6,36.78Zm-13.1-28.13c-8.49,11.56-41.79,9.89-41.79,30.64,0,7.38,5.44,11.15,13.93,11.15,7.67,0,17.83-3.07,28.42-9.2V115.91C300.8,110.62,300.8,104.77,300.24,99.06Z"/><path d="M343.28,58c0-9.61-3.34-11.56-6.68-11.56a20.53,20.53,0,0,0-4.74.84c-.56-.14-.56-1.12-.56-1.12L355.82,39v85.53c0,17.83,8.91,17,11.56,17.83.56.14.56,1.11.56,1.11H331.3s0-1,.56-1.11c2.65-.84,11.42,0,11.42-17.83Z"/><path d="M385.35,89.17c0-9.62-3.35-11.57-6.83-11.57a22,22,0,0,0-4.73.84c-.42-.14-.42-1.11-.42-1.11l24.51-7.11v54.33c0,17.83,8.92,17,11.57,17.83.55.14.55,1.11.55,1.11H373.37s0-1,.56-1.11c2.64-.84,11.42,0,11.42-17.83Z"/><path d="M483,89.17c0-9.62-3.34-11.57-6.83-11.57a22,22,0,0,0-4.73.84c-.42-.14-.42-1.11-.42-1.11l24.52-7.11v54.33c0,17.83,8.91,17,11.56,17.83.56.14.56,1.11.56,1.11H471s0-1,.56-1.11c2.64-.84,11.42,0,11.42-17.83Zm5.85-44.3c4.74,0,9.47,2.92,9.47,8.77s-4.73,8.92-9.47,8.92-9.47-3.07-9.47-8.92S484.1,44.87,488.84,44.87Z"/><path d="M550.27,72.73c14.9,0,29.25,11.42,31.48,26.74H527.56c0,19.37,12.54,43.05,32.6,43.05,15,0,21.45-13.38,22.29-18.67l1.95,1c-3.49,12.39-12,20.75-30.79,20.75C527.56,145.58,515,127.75,515,109,515,84.15,533,72.73,550.27,72.73ZM527.7,97.38h40.82c-1.81-6.68-8.92-22.14-21.32-22.14C534.39,75.24,528.4,85.26,527.7,97.38Z"/><path d="M600.69,89.17c0-9.62-3.34-11.43-6.69-11.43a34.37,34.37,0,0,0-4.73.7c-.56-.14-.56-1.11-.56-1.11l24.52-7V86.24c7.66-8.5,17-15.74,26-15.74,4.32,0,9.33,1.53,9.33,6.69,0,3.9-3.2,7.94-8.64,6.54-4.59-1.11-7.66-3.34-11.56-3.34-3.62,0-7.94,2-15.18,8.08v37.47c.42,16.44,8.91,15.6,11.56,16.44.56.14.56,1.11.56,1.11H588.71s0-1,.56-1.11c2.65-.84,11.42,0,11.42-17.83Z"/><path d="M465.16,125.52c-4.45,9.75-11.7,14.91-17.69,14.91-5.29,0-9.47-4.18-9.47-13.24V76.07h24.8V73.84H438V53.09l0,0a23.9,23.9,0,0,0-7.26-16.51,28.82,28.82,0,0,0-12.39-7,31.62,31.62,0,0,0-18.72.43,21,21,0,0,0-7.13,3.9C381,42.59,381.87,52.84,381.87,52.84h0a8.79,8.79,0,1,0,13.06-8h0a8,8,0,0,0-1.23-.56l-.08,0a4.91,4.91,0,0,1-.94-7.61,18.16,18.16,0,0,1,7.59-4.55,29.49,29.49,0,0,1,17.47-.41,26.77,26.77,0,0,1,11.5,6.44,21.66,21.66,0,0,1,6.48,18.14c-.42,9.47-3.3,17.59-16.68,17.59h-5v2.23h11.42v51.54c0,10.45,7.25,17,16.44,17,8.08,0,17.41-5,24.8-17.14C467,126.5,465.86,124,465.16,125.52Z"/><path d="M218.66,182.12a10,10,0,0,1,.22-2.12,8.36,8.36,0,0,1,.65-2,7.84,7.84,0,0,1,1.08-1.69,6.92,6.92,0,0,1,1.52-1.33,7.28,7.28,0,0,1,1.94-.86,9.16,9.16,0,0,1,4.8,0,7.49,7.49,0,0,1,2,.86,6.7,6.7,0,0,1,1.52,1.33,7.84,7.84,0,0,1,1.08,1.69,8.34,8.34,0,0,1,.64,2,10.66,10.66,0,0,1,.21,2.12,10.14,10.14,0,0,1-.13,1.66,9.74,9.74,0,0,1-.39,1.57,7.63,7.63,0,0,1-.65,1.42,7,7,0,0,1-.91,1.25l2.14,1.72-1.48,1.85-2.63-2.12a6.72,6.72,0,0,1-1.73.64,9.4,9.4,0,0,1-2,.21,9.06,9.06,0,0,1-2.4-.3,7.5,7.5,0,0,1-1.95-.86,6.33,6.33,0,0,1-1.51-1.31,7.08,7.08,0,0,1-1.08-1.68,8.2,8.2,0,0,1-.65-1.94A9.81,9.81,0,0,1,218.66,182.12Zm2.79,0a8.57,8.57,0,0,0,.12,1.44,6.75,6.75,0,0,0,.38,1.37,6,6,0,0,0,.67,1.22,4.38,4.38,0,0,0,2.23,1.6,5,5,0,0,0,1.61.24,7.85,7.85,0,0,0,.87-.05,4.44,4.44,0,0,0,.76-.18l-1.45-1.2,1.53-1.82,2,1.62a4.91,4.91,0,0,0,.59-.91,6.21,6.21,0,0,0,.4-1,7.09,7.09,0,0,0,.24-1.13,8.92,8.92,0,0,0,.07-1.16,8.78,8.78,0,0,0-.12-1.45,6.67,6.67,0,0,0-.38-1.38,5.53,5.53,0,0,0-.66-1.22,4.3,4.3,0,0,0-2.25-1.63,5.53,5.53,0,0,0-1.63-.23,5.3,5.3,0,0,0-1.61.23,4.33,4.33,0,0,0-2.24,1.63,6.5,6.5,0,0,0-.66,1.22,6.67,6.67,0,0,0-.38,1.38A8.78,8.78,0,0,0,221.45,182.12Z"/><path d="M253,184.23a7.57,7.57,0,0,1-.44,2.68,4.91,4.91,0,0,1-1.26,1.91,5.47,5.47,0,0,1-2.05,1.15,9.05,9.05,0,0,1-2.77.38,10.28,10.28,0,0,1-2.85-.36,5.38,5.38,0,0,1-2.11-1.11,4.83,4.83,0,0,1-1.31-1.91,7.54,7.54,0,0,1-.44-2.74l0-10h2.8v10a3.69,3.69,0,0,0,1,2.82,4.15,4.15,0,0,0,3,.94,3.69,3.69,0,0,0,2.76-.94,3.88,3.88,0,0,0,.94-2.82l0-10H253Z"/><path d="M266.83,174.2,273,190h-3.15l-1.6-4.44h-6c-.15.38-.29.75-.42,1.12l-.39,1.09c-.13.37-.25.74-.38,1.1l-.39,1.13h-2.92l6-15.83Zm.51,9-2.08-5.82-2,5.82Z"/><path d="M280.55,174.2v13.46h7.89l0,2.37H277.79l0-15.83Z"/><path d="M296.31,174.2l0,15.83h-2.79l0-15.83Z"/><path d="M301.49,176.6v-2.4H314v2.4h-4.9l0,13.43h-2.79l0-13.43Z"/><path d="M326.37,190h-2.82l0-6.36-6.09-9.47h3.36L325,181l4.14-6.81h3.27l-6.1,9.44Z"/><path d="M366,174.21v13.46h7.89V190H363.22l0-15.83Z"/><path d="M381.74,174.21l0,15.83H379l0-15.83Z"/><path d="M392.24,190l-5.49-15.83h3l4,12.39,4.09-12.39h2.95L395.32,190Z"/><path d="M408.66,174.21l0,15.83H405.9l0-15.83Z"/><path d="M425.11,190,418,178.33,418,190h-2.78l0-15.83h3.19L425.52,186l0-11.81h2.79l0,15.83Z"/><path d="M446.36,188.58a5.67,5.67,0,0,1-1.06.78,7.54,7.54,0,0,1-1.19.55,7.46,7.46,0,0,1-2.5.42,8.38,8.38,0,0,1-2.28-.29,7.16,7.16,0,0,1-3.46-2.09,7.64,7.64,0,0,1-1.13-1.61,8.38,8.38,0,0,1-.7-1.87,8.8,8.8,0,0,1-.24-2.06,10.86,10.86,0,0,1,.22-2.22,9.09,9.09,0,0,1,.65-2,7.83,7.83,0,0,1,1.09-1.74,6.8,6.8,0,0,1,1.52-1.36,7.23,7.23,0,0,1,2-.89,8.46,8.46,0,0,1,2.38-.32,10,10,0,0,1,2.48.3,6.3,6.3,0,0,1,2.12,1,5.51,5.51,0,0,1,1.55,1.73,6.57,6.57,0,0,1,.78,2.6h-2.76a4.1,4.1,0,0,0-.55-1.49,3.31,3.31,0,0,0-.93-1,3.71,3.71,0,0,0-1.23-.55,5.8,5.8,0,0,0-1.47-.18,5,5,0,0,0-1.6.24,4.37,4.37,0,0,0-1.27.66,4.51,4.51,0,0,0-1,1,6,6,0,0,0-.67,1.25,8,8,0,0,0-.39,1.42,9.51,9.51,0,0,0-.12,1.51,7,7,0,0,0,.15,1.45,6.18,6.18,0,0,0,.44,1.36,5.46,5.46,0,0,0,.71,1.16,4.5,4.5,0,0,0,1,.92,4.32,4.32,0,0,0,1.24.6,4.71,4.71,0,0,0,1.49.22,5,5,0,0,0,1.87-.33,4.43,4.43,0,0,0,1.43-.91,3.94,3.94,0,0,0,.93-1.34,4.53,4.53,0,0,0,.39-1.64h-5v-2.4h7.55l0,8.66h-2Z"/></svg>