<svg id="Layer_1" data-name="Layer 1" xmlns="http://www.w3.org/2000/svg" xmlns:xlink="http://www.w3.org/1999/xlink" viewBox="0 0 663.79 333.96"><defs><style>.cls-1{fill:url(#linear-gradient);}.cls-2{fill:url(#linear-gradient-2);}.cls-3{fill:url(#linear-gradient-3);}.cls-4{fill:url(#linear-gradient-4);}.cls-5{fill:url(#linear-gradient-5);}.cls-6{fill:url(#linear-gradient-6);}.cls-7{fill:url(#linear-gradient-7);}.cls-8{fill:url(#linear-gradient-8);}.cls-9{fill:url(#linear-gradient-9);}.cls-10{fill:url(#linear-gradient-10);}.cls-11{fill:url(#linear-gradient-11);}.cls-12{fill:url(#linear-gradient-12);}.cls-13{fill:url(#linear-gradient-13);}.cls-14{fill:url(#linear-gradient-14);}.cls-15{fill:url(#linear-gradient-15);}.cls-16{fill:url(#linear-gradient-16);}.cls-17{fill:url(#linear-gradient-17);}.cls-18{fill:url(#linear-gradient-18);}.cls-19{fill:url(#linear-gradient-19);}.cls-20{fill:url(#linear-gradient-20);}.cls-21{fill:url(#linear-gradient-21);}.cls-22{fill:url(#linear-gradient-22);}.cls-23{fill:url(#linear-gradient-23);}.cls-24{fill:url(#linear-gradient-24);}.cls-25{fill:url(#linear-gradient-25);}.cls-26{fill:url(#linear-gradient-26);}</style><linearGradient id="linear-gradient" x1="-366.87" y1="-208.43" x2="534.7" y2="676.7" gradientUnits="userSpaceOnUse"><stop offset="0.25" stop-color="#af766f"/><stop offset="0.33" stop-color="#b47872"/><stop offset="0.43" stop-color="#c47d7b"/><stop offset="0.47" stop-color="#cd8080"/><stop offset="0.65" stop-color="#d18280"/><stop offset="0.66" stop-color="#cd817e"/><stop offset="0.74" stop-color="#bc7b76"/><stop offset="0.83" stop-color="#b27771"/><stop offset="0.93" stop-color="#af766f"/></linearGradient><linearGradient id="linear-gradient-2" x1="-313.82" y1="-262.46" x2="587.74" y2="622.67" xlink:href="#linear-gradient"/><linearGradient id="linear-gradient-3" x1="-277.52" y1="-299.44" x2="624.05" y2="585.69" xlink:href="#linear-gradient"/><linearGradient id="linear-gradient-4" x1="-235.35" y1="-342.39" x2="666.22" y2="542.74" xlink:href="#linear-gradient"/><linearGradient id="linear-gradient-5" x1="-222.5" y1="-355.48" x2="679.06" y2="529.65" xlink:href="#linear-gradient"/><linearGradient id="linear-gradient-6" x1="-168.82" y1="-410.15" x2="732.74" y2="474.98" xlink:href="#linear-gradient"/><linearGradient id="linear-gradient-7" x1="-143.19" y1="-436.26" x2="758.38" y2="448.87" xlink:href="#linear-gradient"/><linearGradient id="linear-gradient-8" x1="-109.22" y1="-470.86" x2="792.35" y2="414.27" xlink:href="#linear-gradient"/><linearGradient id="linear-gradient-9" x1="-191.22" y1="-387.34" x2="710.34" y2="497.79" xlink:href="#linear-gradient"/><linearGradient id="linear-gradient-10" x1="227.89" y1="-95.9" x2="487.72" y2="245.84" xlink:href="#linear-gradient"/><linearGradient id="linear-gradient-11" x1="190.2" y1="-67.25" x2="450.03" y2="274.49" xlink:href="#linear-gradient"/><linearGradient id="linear-gradient-12" x1="187.52" y1="-65.2" x2="447.34" y2="276.54" xlink:href="#linear-gradient"/><linearGradient id="linear-gradient-13" x1="230.52" y1="-97.9" x2="490.35" y2="243.84" xlink:href="#linear-gradient"/><linearGradient id="linear-gradient-14" x1="46.97" y1="178.07" x2="660.53" y2="649.98" xlink:href="#linear-gradient"/><linearGradient id="linear-gradient-15" x1="54.94" y1="167.7" x2="668.51" y2="639.62" xlink:href="#linear-gradient"/><linearGradient id="linear-gradient-16" x1="60.27" y1="160.78" x2="673.83" y2="632.69" xlink:href="#linear-gradient"/><linearGradient id="linear-gradient-17" x1="66.54" y1="152.62" x2="680.11" y2="624.53" xlink:href="#linear-gradient"/><linearGradient id="linear-gradient-18" x1="72.4" y1="145.01" x2="685.96" y2="616.92" xlink:href="#linear-gradient"/><linearGradient id="linear-gradient-19" x1="78.06" y1="137.65" x2="691.63" y2="609.56" xlink:href="#linear-gradient"/><linearGradient id="linear-gradient-20" x1="84.69" y1="129.03" x2="698.26" y2="600.94" xlink:href="#linear-gradient"/><linearGradient id="linear-gradient-21" x1="98.29" y1="111.34" x2="711.86" y2="583.26" xlink:href="#linear-gradient"/><linearGradient id="linear-gradient-22" x1="104.15" y1="103.73" x2="717.71" y2="575.64" xlink:href="#linear-gradient"/><linearGradient id="linear-gradient-23" x1="110.17" y1="95.9" x2="723.74" y2="567.81" xlink:href="#linear-gradient"/><linearGradient id="linear-gradient-24" x1="114.16" y1="90.72" x2="727.72" y2="562.63" xlink:href="#linear-gradient"/><linearGradient id="linear-gradient-25" x1="119.53" y1="83.72" x2="733.1" y2="555.64" xlink:href="#linear-gradient"/><linearGradient id="linear-gradient-26" x1="126.96" y1="74.07" x2="740.52" y2="545.98" xlink:href="#linear-gradient"/></defs><path class="cls-1" d="M136.24,226.38c0,18.94-11.15,37.89-33.43,46.25,5,9.61,17.55,19.22,30.5,19.22a24.65,24.65,0,0,0,14.35-4.6C150,297,140,299.51,135,299.51c-15,0-29.25-14.63-35.1-25.77a78.18,78.18,0,0,1-24,3.48c-40.12,0-60.18-25.49-60.18-50.84s20.06-50.85,60.18-50.85S136.24,200.89,136.24,226.38Zm-13.65,8.5c0-26.33-19.78-56.14-54-56.14-26.89,0-39.15,18.39-39.15,39,0,26.33,19.79,56.28,54.05,56.28C110.33,274,122.59,255.49,122.59,234.88Z"/><path class="cls-2" d="M203,209.24a20.63,20.63,0,0,0-4.74.84c-.56-.14-.56-1.11-.56-1.11l24.52-7.11v57c0,9.9,1.81,13.93,4.74,13.93,2.09,0,4.73-2.22,7.8-6a.54.54,0,0,1,1,0l.28,1c-4,5.71-9.33,8.22-13.93,8.22-5.85,0-11-4-12.12-10.73-4,5.71-12.12,11.29-21.59,11.29-31.9,0-33-22.43-33-41.65V220.81c0-9.62-3.35-11.57-6.69-11.57a20.73,20.73,0,0,0-4.74.84c-.55-.14-.55-1.11-.55-1.11l24.51-7.11v29.95c.28,14.49-1.53,41.09,21.87,41.09,10.73,0,16.72-6,19.92-10.44V220.81C209.64,211.19,206.3,209.24,203,209.24Z"/><path class="cls-3" d="M310.21,258.83c0,9.9,1.81,13.93,4.6,13.93,2.09,0,4.73-2.22,7.8-6,.7-.69,1,0,1,0l.42,1c-4,5.71-9.19,8.22-13.79,8.22A12.35,12.35,0,0,1,298,265.52c-9.33,5-24.51,11.56-35.94,11.56-9.19,0-20.2-3.06-20.2-15.88,0-22,50.71-20.47,54.75-35-1.81-11.15-6.69-20.34-19.5-20.06-13.93.42-11.15,11.14-18.95,19.08a7.85,7.85,0,0,1-5.71,2.51,7.22,7.22,0,0,1-5.71-11.84c6.55-8.5,20.48-12,30.92-12,28.14,0,32.6,17.13,32.6,36.78ZM297.12,230.7c-8.5,11.56-41.79,9.89-41.79,30.64,0,7.39,5.43,11.15,13.93,11.15,7.66,0,17.83-3.07,28.41-9.2V247.55C297.67,242.26,297.67,236.41,297.12,230.7Z"/><path class="cls-4" d="M340.16,189.6c0-9.61-3.35-11.56-6.69-11.56a20.73,20.73,0,0,0-4.74.84c-.55-.14-.55-1.12-.55-1.12l24.51-7.1v85.53c0,17.83,8.92,17,11.56,17.83.56.14.56,1.11.56,1.11H328.18s0-1,.55-1.11c2.65-.84,11.43,0,11.43-17.83Z"/><path class="cls-5" d="M382.22,220.81c0-9.62-3.34-11.57-6.82-11.57a22,22,0,0,0-4.74.84c-.42-.14-.42-1.11-.42-1.11l24.52-7.11v54.33c0,17.83,8.91,17,11.56,17.83.56.14.56,1.11.56,1.11H370.24s0-1,.56-1.11c2.65-.84,11.42,0,11.42-17.83Z"/><path class="cls-6" d="M479.86,220.81c0-9.62-3.34-11.57-6.82-11.57a22.24,22.24,0,0,0-4.74.84c-.42-.14-.42-1.11-.42-1.11l24.52-7.11v54.33c0,17.83,8.92,17,11.56,17.83.56.14.56,1.11.56,1.11H467.88s0-1,.56-1.11c2.65-.84,11.42,0,11.42-17.83Zm5.85-44.3c4.74,0,9.48,2.92,9.48,8.77s-4.74,8.92-9.48,8.92-9.47-3.06-9.47-8.92S481,176.51,485.71,176.51Z"/><path class="cls-7" d="M547.14,204.37c14.91,0,29.26,11.42,31.48,26.74H524.44c0,19.37,12.53,43.05,32.59,43.05,15.05,0,21.46-13.38,22.29-18.67l1.95,1c-3.48,12.39-12,20.75-30.78,20.75-26,0-38.59-17.83-38.59-36.63C511.9,215.79,529.87,204.37,547.14,204.37ZM524.58,229h40.81c-1.81-6.68-8.91-22.14-21.31-22.14C531.26,206.88,525.27,216.91,524.58,229Z"/><path class="cls-8" d="M597.56,220.81c0-9.62-3.34-11.43-6.68-11.43a34.77,34.77,0,0,0-4.74.7c-.55-.14-.55-1.11-.55-1.11l24.51-7v15.88c7.66-8.5,17-15.74,26-15.74,4.32,0,9.33,1.53,9.33,6.69,0,3.9-3.2,7.94-8.63,6.54-4.6-1.11-7.66-3.34-11.56-3.34-3.63,0-7.95,1.95-15.19,8.08v37.47c.42,16.44,8.92,15.6,11.56,16.44.56.14.56,1.11.56,1.11H585.59s0-1,.55-1.11c2.65-.84,11.42,0,11.42-17.83Z"/><path class="cls-9" d="M462,257.16c-4.46,9.75-11.7,14.91-17.69,14.91-5.3,0-9.48-4.18-9.48-13.24V207.71h24.8v-2.23h-24.8V184.75a24,24,0,0,0-7.27-16.51,28.76,28.76,0,0,0-12.39-7,31.59,31.59,0,0,0-18.71.43,21.25,21.25,0,0,0-7.14,3.9c-11.47,8.61-10.6,18.86-10.6,18.86h0a8.8,8.8,0,1,0,13.06-8h0a8.57,8.57,0,0,0-1.23-.56l-.07,0a4.91,4.91,0,0,1-.95-7.61,18.22,18.22,0,0,1,7.59-4.55,29.53,29.53,0,0,1,17.48-.41,26.8,26.8,0,0,1,11.49,6.44,21.63,21.63,0,0,1,6.48,18.14c-.41,9.47-3.3,17.59-16.67,17.59h-5v2.23h11.43v51.54c0,10.45,7.24,17,16.43,17,8.08,0,17.42-5,24.8-17.14C463.85,258.14,462.73,255.63,462,257.16Z"/><path class="cls-10" d="M330.57,98.88l-36-36C283.12,51.43,278,33.36,290.42,21c11.77-11.78,28.67-7.77,40.14,2.46C346,9.36,362.12,12,370.88,20.8c9.1,9.09,11.63,26.14-4.3,42.07ZM308.11,18.72a19.92,19.92,0,0,0-14.18,5.76c-7.4,7.4-9.26,21.47,4.14,34.88l32.5,32.49,32.5-32.49c13.51-13.52,11.7-27.65,4.3-35s-21.52-9.21-35.05,4.3l-1.75,1.76-1.76-1.76C321.74,21.54,314.48,18.72,308.11,18.72Z"/><path class="cls-11" d="M353.26,143.1c-7.71,0-15.66-3.4-22.73-9.81-9,8.17-19.54,11.38-29.13,8.81A24.61,24.61,0,0,1,284,124.72c-2.74-10.22,1.09-21.47,10.49-30.87l36-36,36,36c9.5,9.5,13.37,20.83,10.62,31.1a24.16,24.16,0,0,1-17.28,17.28A25.55,25.55,0,0,1,353.26,143.1Zm-22.73-16.76,1.76,1.76c8.21,8.21,17.8,11.61,26.3,9.33a19.27,19.27,0,0,0,13.77-13.76c2.28-8.51-1.12-18.1-9.33-26.31l-32.5-32.5L298,97.36c-8.11,8.11-11.47,17.62-9.2,26.08a19.4,19.4,0,0,0,13.86,13.86c8.45,2.26,18-1.09,26.08-9.2Z"/><path class="cls-12" d="M290.74,125.87a25,25,0,0,1-17.69-7.24c-8.76-8.76-11.43-24.91,2.63-40.32-6-6.57-9.28-13.85-9.64-21.18a24.73,24.73,0,0,1,7.18-19c12.4-12.39,30.47-7.3,41.91,4.14l36,36-36,36C306.88,122.57,298.33,125.87,290.74,125.87Zm.13-90a19.72,19.72,0,0,0-14.13,5.77c-7.41,7.4-9.27,21.47,4.13,34.87l1.76,1.76-1.76,1.76c-13.52,13.51-11.71,27.64-4.3,35s21.53,9.21,35-4.3l32.5-32.5-32.5-32.5c-6.12-6.12-12.92-9.54-19.66-9.87Z"/><path class="cls-13" d="M370.49,125.84c-7.59,0-16.14-3.31-24.39-11.56l-36-36,36-36c11.44-11.44,29.51-16.53,41.91-4.13,11.77,11.77,7.77,28.67-2.47,40.13,14.07,15.42,11.4,31.56,2.64,40.33A25,25,0,0,1,370.49,125.84ZM317.12,78.27l32.5,32.5c13.51,13.52,27.64,11.71,35,4.31s9.22-21.53-4.3-35l-1.76-1.76,1.76-1.75c13.4-13.41,11.54-27.48,4.13-34.88S363,32.37,349.62,45.77Z"/><path class="cls-14" d="M215.53,313.76a10,10,0,0,1,.22-2.12,9,9,0,0,1,.65-2,7.88,7.88,0,0,1,1.09-1.69,6.87,6.87,0,0,1,1.51-1.33,7.5,7.5,0,0,1,1.95-.86,8.53,8.53,0,0,1,2.39-.32,8.68,8.68,0,0,1,2.41.32,7.42,7.42,0,0,1,2,.86,6.7,6.7,0,0,1,1.52,1.33,7.47,7.47,0,0,1,1.08,1.69,8.49,8.49,0,0,1,.64,2,10.66,10.66,0,0,1,.21,2.12,10.14,10.14,0,0,1-.13,1.66,8.43,8.43,0,0,1-1,3,7.38,7.38,0,0,1-.92,1.24l2.15,1.72-1.49,1.85-2.62-2.11a6.92,6.92,0,0,1-1.74.63,9.4,9.4,0,0,1-2,.21,8.94,8.94,0,0,1-2.39-.3,7,7,0,0,1-1.95-.86,6.38,6.38,0,0,1-1.52-1.31,7.77,7.77,0,0,1-1.08-1.68,8.68,8.68,0,0,1-.65-1.94A9.81,9.81,0,0,1,215.53,313.76Zm2.79,0a8.57,8.57,0,0,0,.12,1.44,6.18,6.18,0,0,0,.39,1.37,5.53,5.53,0,0,0,.66,1.22,4.38,4.38,0,0,0,2.23,1.6,5.09,5.09,0,0,0,1.61.24,7.85,7.85,0,0,0,.87-.05,4.23,4.23,0,0,0,.76-.18l-1.45-1.2,1.53-1.82,2,1.62a4.45,4.45,0,0,0,.59-.91,6.25,6.25,0,0,0,.41-1,8.38,8.38,0,0,0,.23-1.13,8.92,8.92,0,0,0,.08-1.16,7.82,7.82,0,0,0-.13-1.45,6.1,6.1,0,0,0-.38-1.38,5.53,5.53,0,0,0-.66-1.22,4.42,4.42,0,0,0-1-1,4.12,4.12,0,0,0-1.29-.65,5.17,5.17,0,0,0-1.63-.24,5.09,5.09,0,0,0-1.61.24,4.12,4.12,0,0,0-1.27.65,4,4,0,0,0-1,1,5.53,5.53,0,0,0-.66,1.22,6.11,6.11,0,0,0-.39,1.38A8.78,8.78,0,0,0,218.32,313.76Z"/><path class="cls-15" d="M249.84,315.87a7.57,7.57,0,0,1-.43,2.68,4.93,4.93,0,0,1-1.27,1.91,5.26,5.26,0,0,1-2,1.15,9.05,9.05,0,0,1-2.77.38,10.69,10.69,0,0,1-2.85-.35,5.68,5.68,0,0,1-2.11-1.12,4.81,4.81,0,0,1-1.3-1.91,7.53,7.53,0,0,1-.45-2.74l0-10h2.79l0,10a3.65,3.65,0,0,0,1,2.82,4.17,4.17,0,0,0,3,.94,3.72,3.72,0,0,0,2.77-.94,3.92,3.92,0,0,0,.93-2.82l0-10h2.8Z"/><path class="cls-16" d="M263.71,305.84l6.18,15.83h-3.14l-1.6-4.44h-6c-.15.38-.29.75-.42,1.12l-.39,1.1c-.12.36-.25.73-.38,1.1s-.25.74-.38,1.12h-2.93l6.05-15.83Zm.5,9L262.13,309l-2,5.82Z"/><path class="cls-17" d="M277.43,305.84V319.3h7.88l0,2.37H274.66l0-15.83Z"/><path class="cls-18" d="M293.18,305.84l0,15.83h-2.79l0-15.83Z"/><path class="cls-19" d="M298.37,308.24v-2.4h12.49v2.4H306l0,13.43H303.2l0-13.43Z"/><path class="cls-20" d="M323.24,321.67h-2.82l0-6.36-6.09-9.47h3.37l4.23,6.81,4.14-6.81h3.27l-6.11,9.44Z"/><path class="cls-21" d="M362.85,305.85v13.46h7.89l0,2.37H360.09l0-15.83Z"/><path class="cls-22" d="M378.61,305.85l0,15.83h-2.78l0-15.83Z"/><path class="cls-23" d="M389.12,321.68l-5.5-15.83h3l4.06,12.4,4.08-12.4h3l-5.56,15.83Z"/><path class="cls-24" d="M405.54,305.85l0,15.83h-2.79l0-15.83Z"/><path class="cls-25" d="M422,321.68,414.85,310l0,11.71h-2.79l0-15.83h3.18l7.15,11.81V305.85h2.79l0,15.83Z"/><path class="cls-26" d="M443.23,320.22a5,5,0,0,1-1.06.78,7.44,7.44,0,0,1-1.18.55,7.91,7.91,0,0,1-1.25.32,7.82,7.82,0,0,1-1.26.1,8.26,8.26,0,0,1-2.27-.29,7.51,7.51,0,0,1-1.92-.82,7.29,7.29,0,0,1-1.54-1.27,7,7,0,0,1-1.13-1.61,8.4,8.4,0,0,1-.71-1.87,8.77,8.77,0,0,1-.24-2.05,11.63,11.63,0,0,1,.22-2.23,9.63,9.63,0,0,1,.65-2,8.21,8.21,0,0,1,1.09-1.74,7,7,0,0,1,1.52-1.36,7.23,7.23,0,0,1,2-.89,8.51,8.51,0,0,1,2.38-.32,10.11,10.11,0,0,1,2.49.3,6.25,6.25,0,0,1,2.11,1,5.39,5.39,0,0,1,1.55,1.73,6.57,6.57,0,0,1,.78,2.6h-2.75a4.58,4.58,0,0,0-.55-1.49,3.28,3.28,0,0,0-.93-1,3.58,3.58,0,0,0-1.24-.56,5.8,5.8,0,0,0-1.47-.18,5,5,0,0,0-1.6.24,4.64,4.64,0,0,0-1.27.66,4.51,4.51,0,0,0-1,1A5.52,5.52,0,0,0,434,311a6.61,6.61,0,0,0-.39,1.42,8.47,8.47,0,0,0-.13,1.51,7.86,7.86,0,0,0,.16,1.46,6.25,6.25,0,0,0,.43,1.35,5.46,5.46,0,0,0,.71,1.16,4.74,4.74,0,0,0,1,.92,4.32,4.32,0,0,0,1.24.6,4.79,4.79,0,0,0,1.49.22,5.08,5.08,0,0,0,1.88-.33,4.66,4.66,0,0,0,1.43-.91,4.24,4.24,0,0,0,.93-1.34,4.74,4.74,0,0,0,.38-1.64h-5l0-2.4h7.55l0,8.66h-2Z"/></svg>