<svg id="Layer_1" data-name="Layer 1" xmlns="http://www.w3.org/2000/svg" xmlns:xlink="http://www.w3.org/1999/xlink" viewBox="0 0 868.51 209.86"><defs><style>.cls-1{fill:url(#linear-gradient);}.cls-2{fill:url(#linear-gradient-2);}.cls-3{fill:url(#linear-gradient-3);}.cls-4{fill:url(#linear-gradient-4);}.cls-5{fill:url(#linear-gradient-5);}.cls-6{fill:url(#linear-gradient-6);}.cls-7{fill:url(#linear-gradient-7);}.cls-8{fill:url(#linear-gradient-8);}.cls-9{fill:url(#linear-gradient-9);}.cls-10{fill:url(#linear-gradient-10);}.cls-11{fill:url(#linear-gradient-11);}.cls-12{fill:url(#linear-gradient-12);}.cls-13{fill:url(#linear-gradient-13);}.cls-14{fill:url(#linear-gradient-14);}.cls-15{fill:url(#linear-gradient-15);}.cls-16{fill:url(#linear-gradient-16);}.cls-17{fill:url(#linear-gradient-17);}.cls-18{fill:url(#linear-gradient-18);}.cls-19{fill:url(#linear-gradient-19);}.cls-20{fill:url(#linear-gradient-20);}.cls-21{fill:url(#linear-gradient-21);}.cls-22{fill:url(#linear-gradient-22);}.cls-23{fill:url(#linear-gradient-23);}.cls-24{fill:url(#linear-gradient-24);}.cls-25{fill:url(#linear-gradient-25);}.cls-26{fill:url(#linear-gradient-26);}</style><linearGradient id="linear-gradient" x1="-158.55" y1="-331.01" x2="743.02" y2="554.12" gradientUnits="userSpaceOnUse"><stop offset="0.25" stop-color="#af766f"/><stop offset="0.33" stop-color="#b47872"/><stop offset="0.43" stop-color="#c47d7b"/><stop offset="0.47" stop-color="#cd8080"/><stop offset="0.65" stop-color="#d18280"/><stop offset="0.66" stop-color="#cd817e"/><stop offset="0.74" stop-color="#bc7b76"/><stop offset="0.83" stop-color="#b27771"/><stop offset="0.93" stop-color="#af766f"/></linearGradient><linearGradient id="linear-gradient-2" x1="-105.5" y1="-385.05" x2="796.07" y2="500.08" xlink:href="#linear-gradient"/><linearGradient id="linear-gradient-3" x1="-69.19" y1="-422.02" x2="832.37" y2="463.11" xlink:href="#linear-gradient"/><linearGradient id="linear-gradient-4" x1="-27.02" y1="-464.97" x2="874.54" y2="420.16" xlink:href="#linear-gradient"/><linearGradient id="linear-gradient-5" x1="-14.18" y1="-478.06" x2="887.39" y2="407.07" xlink:href="#linear-gradient"/><linearGradient id="linear-gradient-6" x1="39.5" y1="-532.74" x2="941.07" y2="352.39" xlink:href="#linear-gradient"/><linearGradient id="linear-gradient-7" x1="65.14" y1="-558.85" x2="966.7" y2="326.28" xlink:href="#linear-gradient"/><linearGradient id="linear-gradient-8" x1="99.11" y1="-593.45" x2="1000.67" y2="291.68" xlink:href="#linear-gradient"/><linearGradient id="linear-gradient-9" x1="17.1" y1="-509.92" x2="918.67" y2="375.21" xlink:href="#linear-gradient"/><linearGradient id="linear-gradient-10" x1="-29.65" y1="-134.73" x2="329.54" y2="337.7" xlink:href="#linear-gradient"/><linearGradient id="linear-gradient-11" x1="-81.75" y1="-95.12" x2="277.44" y2="377.31" xlink:href="#linear-gradient"/><linearGradient id="linear-gradient-12" x1="-85.47" y1="-92.29" x2="273.72" y2="380.14" xlink:href="#linear-gradient"/><linearGradient id="linear-gradient-13" x1="-26.01" y1="-137.49" x2="333.18" y2="334.94" xlink:href="#linear-gradient"/><linearGradient id="linear-gradient-14" x1="429.2" y1="37.57" x2="1042.77" y2="509.48" xlink:href="#linear-gradient"/><linearGradient id="linear-gradient-15" x1="437.17" y1="27.2" x2="1050.74" y2="499.12" xlink:href="#linear-gradient"/><linearGradient id="linear-gradient-16" x1="442.5" y1="20.28" x2="1056.06" y2="492.19" xlink:href="#linear-gradient"/><linearGradient id="linear-gradient-17" x1="448.77" y1="12.12" x2="1062.34" y2="484.03" xlink:href="#linear-gradient"/><linearGradient id="linear-gradient-18" x1="454.63" y1="4.51" x2="1068.2" y2="476.42" xlink:href="#linear-gradient"/><linearGradient id="linear-gradient-19" x1="460.29" y1="-2.86" x2="1073.86" y2="469.06" xlink:href="#linear-gradient"/><linearGradient id="linear-gradient-20" x1="466.92" y1="-11.48" x2="1080.49" y2="460.44" xlink:href="#linear-gradient"/><linearGradient id="linear-gradient-21" x1="480.52" y1="-29.16" x2="1094.09" y2="442.76" xlink:href="#linear-gradient"/><linearGradient id="linear-gradient-22" x1="486.38" y1="-36.77" x2="1099.94" y2="435.14" xlink:href="#linear-gradient"/><linearGradient id="linear-gradient-23" x1="492.4" y1="-44.6" x2="1105.97" y2="427.31" xlink:href="#linear-gradient"/><linearGradient id="linear-gradient-24" x1="496.39" y1="-49.78" x2="1109.95" y2="422.13" xlink:href="#linear-gradient"/><linearGradient id="linear-gradient-25" x1="501.77" y1="-56.78" x2="1115.33" y2="415.14" xlink:href="#linear-gradient"/><linearGradient id="linear-gradient-26" x1="509.19" y1="-66.43" x2="1122.75" y2="405.48" xlink:href="#linear-gradient"/></defs><path class="cls-1" d="M344.56,103.8c0,18.94-11.14,37.89-33.43,46.24,5,9.61,17.55,19.23,30.51,19.23a24.69,24.69,0,0,0,14.34-4.6c2.37,9.75-7.66,12.26-12.67,12.26-15.05,0-29.25-14.63-35.11-25.77a78.11,78.11,0,0,1-23.95,3.48c-40.12,0-60.18-25.49-60.18-50.84S244.13,53,284.25,53,344.56,78.3,344.56,103.8Zm-13.65,8.49c0-26.32-19.78-56.13-54.05-56.13-26.88,0-39.14,18.38-39.14,39,0,26.33,19.78,56.28,54,56.28C318.65,151.44,330.91,132.91,330.91,112.29Z"/><path class="cls-2" d="M411.28,86.66a20.54,20.54,0,0,0-4.73.84c-.56-.14-.56-1.12-.56-1.12l24.51-7.1v57c0,9.89,1.82,13.93,4.74,13.93,2.09,0,4.74-2.23,7.8-6,.56-.69,1,0,1,0l.28,1c-4,5.71-9.34,8.22-13.93,8.22-5.85,0-11-4-12.12-10.73a27.43,27.43,0,0,1-21.6,11.28c-31.89,0-33-22.42-33-41.65V98.22c0-9.61-3.34-11.56-6.69-11.56a20.54,20.54,0,0,0-4.73.84c-.56-.14-.56-1.12-.56-1.12l24.52-7.1v30c.28,14.49-1.53,41.09,21.87,41.09,10.72,0,16.71-6,19.92-10.45V98.22C418,88.61,414.62,86.66,411.28,86.66Z"/><path class="cls-3" d="M518.54,136.25c0,9.89,1.81,13.93,4.59,13.93,2.09,0,4.74-2.23,7.8-6,.7-.69,1,0,1,0l.42,1c-4,5.71-9.2,8.22-13.79,8.22a12.33,12.33,0,0,1-12.26-10.45c-9.34,5-24.52,11.56-35.94,11.56-9.2,0-20.2-3.06-20.2-15.88,0-22,50.7-20.48,54.74-35-1.81-11.15-6.68-20.34-19.5-20.06-13.93.41-11.14,11.14-18.94,19.08a7.85,7.85,0,0,1-5.71,2.51,7.39,7.39,0,0,1-7.39-7.11A7.27,7.27,0,0,1,455,93.35c6.54-8.5,20.47-12,30.92-12,28.14,0,32.6,17.13,32.6,36.77Zm-13.1-28.14c-8.5,11.57-41.79,9.89-41.79,30.65,0,7.38,5.43,11.14,13.93,11.14,7.66,0,17.83-3.06,28.42-9.19V125C506,119.68,506,113.82,505.44,108.11Z"/><path class="cls-4" d="M548.48,67c0-9.61-3.34-11.56-6.69-11.56a21.13,21.13,0,0,0-4.73.83c-.56-.13-.56-1.11-.56-1.11L561,48.08v85.53c0,17.83,8.91,17,11.56,17.83.56.14.56,1.11.56,1.11H536.5s0-1,.56-1.11c2.64-.84,11.42,0,11.42-17.83Z"/><path class="cls-5" d="M590.55,98.22c0-9.61-3.35-11.56-6.83-11.56a22.24,22.24,0,0,0-4.74.84c-.41-.14-.41-1.12-.41-1.12l24.51-7.1v54.33c0,17.83,8.92,17,11.56,17.83.56.14.56,1.11.56,1.11H578.57s0-1,.55-1.11c2.65-.84,11.43,0,11.43-17.83Z"/><path class="cls-6" d="M688.19,98.22c0-9.61-3.35-11.56-6.83-11.56a22,22,0,0,0-4.73.84c-.42-.14-.42-1.12-.42-1.12l24.52-7.1v54.33c0,17.83,8.91,17,11.56,17.83.55.14.55,1.11.55,1.11H676.21s0-1,.56-1.11c2.64-.84,11.42,0,11.42-17.83ZM694,53.93c4.74,0,9.47,2.92,9.47,8.77s-4.73,8.92-9.47,8.92-9.47-3.07-9.47-8.92S689.3,53.93,694,53.93Z"/><path class="cls-7" d="M755.47,81.79c14.9,0,29.25,11.42,31.48,26.74H732.76c0,19.36,12.54,43.05,32.6,43.05,15,0,21.45-13.38,22.28-18.67l2,1c-3.49,12.4-12,20.76-30.79,20.76-26,0-38.59-17.83-38.59-36.64C720.22,93.21,738.19,81.79,755.47,81.79ZM732.9,106.44h40.81c-1.81-6.68-8.91-22.15-21.31-22.15C739.59,84.29,733.6,94.32,732.9,106.44Z"/><path class="cls-8" d="M805.89,98.22c0-9.61-3.34-11.42-6.69-11.42a34.37,34.37,0,0,0-4.73.7c-.56-.14-.56-1.12-.56-1.12l24.52-7V95.3c7.66-8.5,17-15.74,26.05-15.74,4.31,0,9.33,1.53,9.33,6.68,0,3.9-3.21,7.94-8.64,6.55-4.6-1.11-7.66-3.34-11.56-3.34-3.62,0-7.94,2-15.18,8.08V135c.41,16.44,8.91,15.6,11.56,16.44.56.14.56,1.11.56,1.11H793.91s0-1,.56-1.11c2.64-.84,11.42,0,11.42-17.83Z"/><path class="cls-9" d="M670.36,134.58c-4.46,9.75-11.7,14.91-17.69,14.91-5.29,0-9.47-4.18-9.47-13.24V85.13H668V82.9H643.2V62.14l0,0a23.87,23.87,0,0,0-7.27-16.51,28.73,28.73,0,0,0-12.38-6.95,31.46,31.46,0,0,0-18.72.43A21.17,21.17,0,0,0,597.67,43c-11.47,8.62-10.6,18.87-10.6,18.87h0a8.79,8.79,0,1,0,13.06-8h0a8.07,8.07,0,0,0-1.24-.55l-.07-.05a4.9,4.9,0,0,1-.94-7.6,18.16,18.16,0,0,1,7.59-4.56,29.57,29.57,0,0,1,17.47-.4,26.73,26.73,0,0,1,11.5,6.44,21.66,21.66,0,0,1,6.48,18.14c-.42,9.47-3.3,17.59-16.68,17.59h-5v2.23h11.42v51.54c0,10.45,7.24,17,16.44,17,8.08,0,17.41-5,24.79-17.13C672.17,135.56,671.06,133.05,670.36,134.58Z"/><path class="cls-10" d="M112.29,134.54,62.51,84.76C46.69,69,39.65,44,56.79,26.83c16.28-16.28,39.63-10.74,55.49,3.41C133.59,10.79,155.92,14.48,168,26.6c12.57,12.57,16.07,36.13-5.95,58.16Zm-31-110.81a27.51,27.51,0,0,0-19.6,8C51.41,41.92,48.84,61.38,67.36,79.9l44.93,44.93L157.22,79.9c18.69-18.69,16.18-38.21,5.95-48.44s-29.76-12.74-48.45,5.94l-2.43,2.43-2.43-2.43C100.09,27.63,90.05,23.73,81.25,23.73Z"/><path class="cls-11" d="M143.67,195.67c-10.66,0-21.65-4.7-31.43-13.56-12.48,11.3-27,15.74-40.26,12.18a34,34,0,0,1-24-24c-3.79-14.13,1.5-29.69,14.5-42.69L112.24,77.8,162,127.58c13.13,13.14,18.49,28.81,14.68,43a33.44,33.44,0,0,1-23.89,23.9A35.28,35.28,0,0,1,143.67,195.67Zm-31.43-23.16,2.43,2.43c11.35,11.35,24.61,16,36.37,12.9a26.64,26.64,0,0,0,19-19c3.15-11.76-1.55-25-12.91-36.37L112.24,87.51,67.31,132.44C56.1,143.66,51.46,156.8,54.59,168.49a26.85,26.85,0,0,0,19.17,19.17c11.68,3.12,24.83-1.51,36.05-12.72Z"/><path class="cls-12" d="M57.23,171.86a34.48,34.48,0,0,1-24.45-10C20.67,149.73,17,127.42,36.42,106.1,28.18,97,23.58,87,23.08,76.83A34.23,34.23,0,0,1,33,50.6C50.15,33.47,75.13,40.51,91,56.32l49.78,49.78L91,155.89C79.54,167.29,67.72,171.86,57.23,171.86ZM57.41,47.5a27.32,27.32,0,0,0-19.54,8C27.64,65.7,25.06,85.15,43.59,103.68L46,106.1l-2.43,2.43c-18.69,18.69-16.18,38.22-6,48.45S67.4,169.71,86.09,151L131,106.1,86.09,61.18C77.62,52.71,68.22,48,58.9,47.53,58.4,47.51,57.91,47.5,57.41,47.5Z"/><path class="cls-13" d="M167.48,171.81c-10.49,0-22.31-4.57-33.71-16L84,106.05l49.79-49.78c15.81-15.81,40.79-22.85,57.93-5.72C208,66.83,202.44,90.19,188.29,106c19.45,21.31,15.76,43.63,3.64,55.75A34.46,34.46,0,0,1,167.48,171.81ZM93.7,106.05,138.62,151c18.69,18.69,38.22,16.18,48.45,6s12.74-29.76-5.95-48.45l-2.43-2.43,2.43-2.42c18.53-18.53,15.95-38,5.72-48.22s-29.68-12.81-48.22,5.72Z"/><path class="cls-14" d="M597.76,173.26a9.9,9.9,0,0,1,.22-2.12,8.84,8.84,0,0,1,.65-2,7.88,7.88,0,0,1,1.09-1.69,6.62,6.62,0,0,1,1.51-1.33,7.18,7.18,0,0,1,1.95-.86,8.53,8.53,0,0,1,2.39-.32,8.68,8.68,0,0,1,2.41.32,7.11,7.11,0,0,1,2,.86,6.46,6.46,0,0,1,1.52,1.33,7.14,7.14,0,0,1,1.08,1.69,8.36,8.36,0,0,1,.65,2,11.37,11.37,0,0,1,.2,2.12,10.14,10.14,0,0,1-.13,1.66,9,9,0,0,1-.38,1.57,8.34,8.34,0,0,1-.65,1.42,7.07,7.07,0,0,1-.92,1.25l2.15,1.72L612,182.73l-2.62-2.12a6.93,6.93,0,0,1-1.74.64,9.33,9.33,0,0,1-2,.21,8.94,8.94,0,0,1-2.39-.3,7.5,7.5,0,0,1-1.95-.86,6.62,6.62,0,0,1-1.52-1.31,7.77,7.77,0,0,1-1.08-1.68,8.68,8.68,0,0,1-.65-1.94A9.81,9.81,0,0,1,597.76,173.26Zm2.79,0a8.66,8.66,0,0,0,.12,1.44,6.18,6.18,0,0,0,.39,1.37,5.24,5.24,0,0,0,.66,1.21,4.21,4.21,0,0,0,1,1,4.33,4.33,0,0,0,1.27.64,5.09,5.09,0,0,0,1.61.24,5.94,5.94,0,0,0,.87-.06,3.52,3.52,0,0,0,.76-.17l-1.45-1.2,1.53-1.82,2,1.62a4.74,4.74,0,0,0,.59-.91,6.25,6.25,0,0,0,.41-1,8.38,8.38,0,0,0,.23-1.13,8.92,8.92,0,0,0,.08-1.16,8,8,0,0,0-.13-1.46,6.16,6.16,0,0,0-.38-1.37,5.53,5.53,0,0,0-.66-1.22,4.69,4.69,0,0,0-1-1,4.59,4.59,0,0,0-1.29-.65,5.48,5.48,0,0,0-1.63-.23,5.4,5.4,0,0,0-1.61.23,4.61,4.61,0,0,0-1.27.65,4.25,4.25,0,0,0-1,1,5.53,5.53,0,0,0-.66,1.22,6.18,6.18,0,0,0-.39,1.37A9,9,0,0,0,600.55,173.26Z"/><path class="cls-15" d="M632.07,175.36a7.59,7.59,0,0,1-.43,2.69,5,5,0,0,1-1.27,1.91,5.39,5.39,0,0,1-2,1.15,9,9,0,0,1-2.76.38,10.3,10.3,0,0,1-2.86-.36,5.53,5.53,0,0,1-2.11-1.11,4.81,4.81,0,0,1-1.3-1.91,7.54,7.54,0,0,1-.45-2.75l0-10h2.79l0,10a3.66,3.66,0,0,0,1,2.83,4.22,4.22,0,0,0,3,.94,3.76,3.76,0,0,0,2.77-.94,4,4,0,0,0,.94-2.83l0-10h2.8Z"/><path class="cls-16" d="M645.94,165.34l6.18,15.83H649l-1.6-4.44h-6c-.15.38-.29.75-.42,1.12l-.39,1.09c-.12.37-.25.74-.38,1.1s-.25.75-.38,1.13h-2.93l6-15.83Zm.5,9-2.08-5.82-2,5.82Z"/><path class="cls-17" d="M659.66,165.34V178.8h7.88l0,2.37H656.89l0-15.83Z"/><path class="cls-18" d="M675.41,165.34l0,15.83h-2.79l0-15.83Z"/><path class="cls-19" d="M680.6,167.74v-2.4h12.49v2.4h-4.9l0,13.43h-2.79l0-13.43Z"/><path class="cls-20" d="M705.47,181.17h-2.82l0-6.36-6.09-9.47h3.37l4.23,6.81,4.14-6.81h3.27l-6.11,9.44Z"/><path class="cls-21" d="M745.09,165.35v13.46H753l0,2.37H742.32l0-15.83Z"/><path class="cls-22" d="M760.84,165.35l0,15.83h-2.78l0-15.83Z"/><path class="cls-23" d="M771.35,181.18l-5.5-15.83h3L773,177.74,777,165.35h3l-5.56,15.83Z"/><path class="cls-24" d="M787.77,165.35l0,15.83H785l0-15.83Z"/><path class="cls-25" d="M804.21,181.18l-7.13-11.71,0,11.71h-2.79l0-15.83h3.18l7.15,11.81V165.35h2.79l0,15.83Z"/><path class="cls-26" d="M825.46,179.72a5.79,5.79,0,0,1-1.06.78,7.44,7.44,0,0,1-1.18.55,7.91,7.91,0,0,1-1.25.32,7.82,7.82,0,0,1-1.26.1,8.26,8.26,0,0,1-2.27-.29,7.88,7.88,0,0,1-1.92-.82,7.29,7.29,0,0,1-1.54-1.27,7,7,0,0,1-1.13-1.61,7.83,7.83,0,0,1-.7-1.88,8.16,8.16,0,0,1-.25-2,11.61,11.61,0,0,1,.22-2.22,9.46,9.46,0,0,1,.66-2,8.17,8.17,0,0,1,1.08-1.74,7,7,0,0,1,1.52-1.36,7.23,7.23,0,0,1,2-.89,8.51,8.51,0,0,1,2.38-.32,10.11,10.11,0,0,1,2.49.3,6.25,6.25,0,0,1,2.11,1,5.39,5.39,0,0,1,1.55,1.73,6.57,6.57,0,0,1,.78,2.6h-2.75a4.5,4.5,0,0,0-.55-1.49,3.31,3.31,0,0,0-.93-1,3.76,3.76,0,0,0-1.24-.55,5.8,5.8,0,0,0-1.47-.18,5,5,0,0,0-1.6.24,4.64,4.64,0,0,0-1.27.66,4.51,4.51,0,0,0-1,1,5.52,5.52,0,0,0-.66,1.25,6.61,6.61,0,0,0-.39,1.42,8.47,8.47,0,0,0-.13,1.51,7.76,7.76,0,0,0,.16,1.45,5.92,5.92,0,0,0,.43,1.35,5.29,5.29,0,0,0,.71,1.17,4.74,4.74,0,0,0,1,.92,4.32,4.32,0,0,0,1.24.6,4.79,4.79,0,0,0,1.49.22,4.88,4.88,0,0,0,1.88-.34,4.46,4.46,0,0,0,1.43-.9,4.35,4.35,0,0,0,.93-1.34,4.74,4.74,0,0,0,.38-1.64h-5l0-2.4h7.56l0,8.66h-2Z"/></svg>